<svg width="0" height="0" class="hidden">
  <symbol xmlns="http://www.w3.org/2000/svg" viewBox="0 0 10 9.569" id="icon_star">
    <path d="M5.258-17.164a.568.568,0,0,1,.327-.3.637.637,0,0,1,.43,0,.568.568,0,0,1,.327.3L7.556-14.7l2.729.392a.567.567,0,0,1,.383.224.624.624,0,0,1,.131.411.574.574,0,0,1-.178.392L8.64-11.351l.467,2.729a.59.59,0,0,1-.084.421.549.549,0,0,1-.346.252.576.576,0,0,1-.43-.056L5.8-9.277,3.351-8.006a.576.576,0,0,1-.43.056A.549.549,0,0,1,2.576-8.2a.59.59,0,0,1-.084-.421l.467-2.729L.978-13.276A.574.574,0,0,1,.8-13.669a.624.624,0,0,1,.131-.411.567.567,0,0,1,.383-.224L4.043-14.7Z"
          transform="translate(-0.8 17.5)"></path>
  </symbol>
  <symbol id="icon_close" xmlns="http://www.w3.org/2000/svg" width="12" height="12" viewBox="0 0 12 12">
    <path class="a"
          d="M-665.627-10.352l-4.461-4.461-4.461,4.461a.9.9,0,0,1-1.275,0,.9.9,0,0,1,0-1.275l4.461-4.461-4.461-4.461a.9.9,0,0,1,0-1.275.9.9,0,0,1,1.275,0l4.461,4.461,4.461-4.461a.9.9,0,0,1,1.274,0,.9.9,0,0,1,0,1.274l-4.461,4.461,4.461,4.461a.9.9,0,0,1,0,1.275.9.9,0,0,1-.638.264A.9.9,0,0,1-665.627-10.352Z"
          transform="translate(676.088 22.088)"/>
  </symbol>
  <symbol xmlns="http://www.w3.org/2000/svg" viewBox="0 0 16 12.261" id="icon_check">
    <path d="M19.5,6.879,8.529,17.851,3.5,12.822l1.289-1.289,3.739,3.73L18.211,5.59Z"
          transform="translate(-3.5 -5.59)"></path>
  </symbol>
</svg>
